# xmcd CD database file
#
# Track frame offsets:
#	150
#	17215
#	34929
#	49731
#	67884
#	81974
#	95775
#	116681
#	137301
#	150933
#	162028
#	178289
#	191550
#	204811
#	222489
#	236085
#	250739
#	260292
#
# Disc length: 3707 seconds
#
# Revision: 0
# Processed by: cddbd v1.5.2PL0 Copyright (c) Steve Scherf et al.
# Submitted via: jetAudio 7
#
DISCID=f20e7912
DTITLE=Merle Haggard - 1999-07-27 - Live At Billy Bob's Texas: Motorcyc
DTITLE=le Cowboy - (6625-8-25000-2)
DYEAR=1900
DGENRE=Country
TTITLE0=Misery and Gin (live)
TTITLE1=I Think I'll Just Stay Here and Drink (live)
TTITLE2=Workin' Man Blues (live)
TTITLE3=Silver Wings (live)
TTITLE4=Swinging Doors (live)
TTITLE5=That's the Way Love Goes (live)
TTITLE6=The Bottle Let Me Down (live)
TTITLE7=Ramblin' Fever (live)
TTITLE8=The Emptiest Arms in the World (live)
TTITLE9=Mama Tried (live)
TTITLE10=Hungry Eyes (live)
TTITLE11=Motorcycle Cowboy  Blue Yodel #13 (live)
TTITLE12=If We Make it Through December (live)
TTITLE13=Are the Good Times Really Over (live)
TTITLE14=Okie From Muskogee (live)
TTITLE15=Big City (live)
TTITLE16=Ida Red (live)
TTITLE17=Today I Started Loving You Again (live)
EXTD=
EXTT0=
EXTT1=
EXTT2=
EXTT3=
EXTT4=
EXTT5=
EXTT6=
EXTT7=
EXTT8=
EXTT9=
EXTT10=
EXTT11=
EXTT12=
EXTT13=
EXTT14=
EXTT15=
EXTT16=
EXTT17=
PLAYORDER=
